<svg width="100" height="100" viewBox="0 0 100 100" xmlns="http://www.w3.org/2000/svg">
  <!-- Background circle -->
  <circle cx="50" cy="50" r="45" fill="#F3E5F5" stroke="#9C27B0" stroke-width="2"/>
  
  <!-- Admin figure -->
  <!-- Head -->
  <circle cx="50" cy="30" r="11" fill="#FDBCB4"/>
  
  <!-- Hair -->
  <path d="M 39 26 Q 50 16 61 26 Q 61 31 50 29 Q 39 31 39 26" fill="#696969"/>
  
  <!-- Glasses -->
  <circle cx="46" cy="28" r="4" fill="none" stroke="#000" stroke-width="1"/>
  <circle cx="54" cy="28" r="4" fill="none" stroke="#000" stroke-width="1"/>
  <line x1="50" y1="28" x2="50" y2="28" stroke="#000" stroke-width="2"/>
  
  <!-- Body (suit) -->
  <rect x="42" y="41" width="16" height="26" fill="#2C3E50"/>
  
  <!-- Shirt -->
  <rect x="45" y="43" width="10" height="20" fill="#FFF"/>
  
  <!-- Tie -->
  <polygon points="50,43 48,50 52,50" fill="#8B0000"/>
  <polygon points="48,50 52,50 51,60 49,60" fill="#8B0000"/>
  
  <!-- Arms -->
  <rect x="35" y="44" width="7" height="15" fill="#2C3E50"/>
  <rect x="58" y="44" width="7" height="15" fill="#2C3E50"/>
  <circle cx="38.5" cy="60" r="2.5" fill="#FDBCB4"/>
  <circle cx="61.5" cy="60" r="2.5" fill="#FDBCB4"/>
  
  <!-- Legs -->
  <rect x="44" y="67" width="5" height="15" fill="#2C3E50"/>
  <rect x="51" y="67" width="5" height="15" fill="#2C3E50"/>
  
  <!-- Shoes -->
  <ellipse cx="46.5" cy="83" rx="3" ry="2" fill="#000"/>
  <ellipse cx="53.5" cy="83" rx="3" ry="2" fill="#000"/>
  
  <!-- Clipboard -->
  <rect x="68" y="35" width="15" height="20" fill="#D2B48C"/>
  <rect x="70" y="37" width="11" height="16" fill="#FFF"/>
  <circle cx="75" cy="35" r="1.5" fill="#C0C0C0"/>
  
  <!-- Lines on clipboard -->
  <line x1="72" y1="40" x2="79" y2="40" stroke="#000" stroke-width="0.5"/>
  <line x1="72" y1="43" x2="79" y2="43" stroke="#000" stroke-width="0.5"/>
  <line x1="72" y1="46" x2="79" y2="46" stroke="#000" stroke-width="0.5"/>
  <line x1="72" y1="49" x2="79" y2="49" stroke="#000" stroke-width="0.5"/>
  
  <!-- Pen -->
  <line x1="58" y1="50" x2="68" y2="45" stroke="#4169E1" stroke-width="2"/>
  <circle cx="68" cy="45" r="1" fill="#FFD700"/>
  
  <!-- Chart/Graph -->
  <rect x="15" y="60" width="20" height="15" fill="#FFF" stroke="#000" stroke-width="1"/>
  <line x1="17" y1="73" x2="17" y2="62" stroke="#000" stroke-width="1"/>
  <line x1="17" y1="73" x2="33" y2="73" stroke="#000" stroke-width="1"/>
  <rect x="19" y="68" width="3" height="5" fill="#4CAF50"/>
  <rect x="23" y="65" width="3" height="8" fill="#2196F3"/>
  <rect x="27" y="70" width="3" height="3" fill="#FF9800"/>
  <rect x="31" y="62" width="3" height="11" fill="#F44336"/>
</svg>