<svg width="200" height="200" viewBox="0 0 200 200" xmlns="http://www.w3.org/2000/svg">
  <defs>
    <pattern id="educationPattern" x="0" y="0" width="50" height="50" patternUnits="userSpaceOnUse">
      <!-- Light background -->
      <rect width="50" height="50" fill="#F8F9FA"/>
      
      <!-- Book icon -->
      <g transform="translate(10, 10)">
        <rect x="5" y="8" width="8" height="12" fill="#E3F2FD" opacity="0.3"/>
        <rect x="13" y="8" width="8" height="12" fill="#FFF3E0" opacity="0.3"/>
        <line x1="13" y1="8" x2="13" y2="20" stroke="#E0E0E0" stroke-width="0.5"/>
      </g>
      
      <!-- Apple icon -->
      <g transform="translate(30, 25)">
        <circle cx="5" cy="5" r="3" fill="#FFEBEE" opacity="0.4"/>
        <ellipse cx="5" cy="3" rx="0.5" ry="1" fill="#E8F5E8" opacity="0.4"/>
      </g>
      
      <!-- Star -->
      <g transform="translate(8, 35)">
        <polygon points="5,2 6,4 8,4 6.5,5.5 7,8 5,6.5 3,8 3.5,5.5 2,4 4,4" fill="#FFF3E0" opacity="0.3"/>
      </g>
      
      <!-- Pencil -->
      <g transform="translate(35, 5)">
        <line x1="2" y1="8" x2="6" y2="4" stroke="#E8F5E8" stroke-width="1" opacity="0.3"/>
        <circle cx="6" cy="4" r="0.5" fill="#FFEBEE" opacity="0.4"/>
      </g>
    </pattern>
  </defs>
  
  <rect width="200" height="200" fill="url(#educationPattern)"/>
</svg>