<svg width="100" height="100" viewBox="0 0 100 100" xmlns="http://www.w3.org/2000/svg">
  <!-- Background circle -->
  <circle cx="50" cy="50" r="45" fill="#E3F2FD" stroke="#2196F3" stroke-width="2"/>
  
  <!-- Book -->
  <rect x="25" y="35" width="25" height="30" fill="#FF6B35" stroke="#000" stroke-width="1"/>
  <rect x="50" y="35" width="25" height="30" fill="#F7931E" stroke="#000" stroke-width="1"/>
  <line x1="50" y1="35" x2="50" y2="65" stroke="#000" stroke-width="2"/>
  
  <!-- Book pages -->
  <line x1="30" y1="40" x2="45" y2="40" stroke="#FFF" stroke-width="1"/>
  <line x1="30" y1="45" x2="45" y2="45" stroke="#FFF" stroke-width="1"/>
  <line x1="30" y1="50" x2="45" y2="50" stroke="#FFF" stroke-width="1"/>
  <line x1="55" y1="40" x2="70" y2="40" stroke="#FFF" stroke-width="1"/>
  <line x1="55" y1="45" x2="70" y2="45" stroke="#FFF" stroke-width="1"/>
  <line x1="55" y1="50" x2="70" y2="50" stroke="#FFF" stroke-width="1"/>
  
  <!-- Graduation cap -->
  <ellipse cx="50" cy="25" rx="15" ry="3" fill="#000"/>
  <rect x="35" y="22" width="30" height="6" fill="#000"/>
  <line x1="65" y1="25" x2="72" y2="18" stroke="#000" stroke-width="2"/>
  <circle cx="72" cy="18" r="2" fill="#FFD700"/>
  
  <!-- Stars around -->
  <polygon points="15,20 17,25 22,25 18,28 20,33 15,30 10,33 12,28 8,25 13,25" fill="#FFD700"/>
  <polygon points="80,75 82,80 87,80 83,83 85,88 80,85 75,88 77,83 73,80 78,80" fill="#FFD700"/>
</svg>