<svg width="100" height="100" viewBox="0 0 100 100" xmlns="http://www.w3.org/2000/svg">
  <!-- Background circle -->
  <circle cx="50" cy="50" r="45" fill="#FFF3E0" stroke="#FF9800" stroke-width="2"/>
  
  <!-- Student figure -->
  <!-- Head -->
  <circle cx="50" cy="32" r="10" fill="#FDBCB4"/>
  
  <!-- Hair -->
  <path d="M 40 27 Q 50 18 60 27 Q 60 32 50 30 Q 40 32 40 27" fill="#DEB887"/>
  
  <!-- Body -->
  <rect x="43" y="42" width="14" height="22" fill="#FF69B4"/>
  
  <!-- Arms -->
  <rect x="37" y="45" width="6" height="12" fill="#FDBCB4"/>
  <rect x="57" y="45" width="6" height="12" fill="#FDBCB4"/>
  
  <!-- Legs -->
  <rect x="45" y="64" width="4" height="13" fill="#000"/>
  <rect x="51" y="64" width="4" height="13" fill="#000"/>
  
  <!-- Shoes -->
  <ellipse cx="47" cy="78" rx="2.5" ry="1.5" fill="#000"/>
  <ellipse cx="53" cy="78" rx="2.5" ry="1.5" fill="#000"/>
  
  <!-- Backpack -->
  <rect x="57" y="40" width="8" height="12" fill="#4169E1" rx="2"/>
  <rect x="59" y="42" width="4" height="8" fill="#87CEEB"/>
  <line x1="61" y1="40" x2="61" y2="35" stroke="#000" stroke-width="2"/>
  
  <!-- Book in hand -->
  <rect x="32" y="50" width="5" height="7" fill="#FF4500"/>
  <line x1="32" y1="53" x2="37" y2="53" stroke="#FFF" stroke-width="0.5"/>
  
  <!-- Pencil -->
  <line x1="65" y1="48" x2="72" y2="41" stroke="#FFD700" stroke-width="2"/>
  <circle cx="72" cy="41" r="1" fill="#FF69B4"/>
  
  <!-- Happy face -->
  <circle cx="47" cy="30" r="1" fill="#000"/>
  <circle cx="53" cy="30" r="1" fill="#000"/>
  <path d="M 46 35 Q 50 38 54 35" stroke="#000" stroke-width="1" fill="none"/>
  
  <!-- Stars around (representing achievement) -->
  <polygon points="20,25 21,28 24,28 22,30 23,33 20,31 17,33 18,30 16,28 19,28" fill="#FFD700"/>
  <polygon points="75,20 76,23 79,23 77,25 78,28 75,26 72,28 73,25 71,23 74,23" fill="#FFD700"/>
  <polygon points="25,70 26,73 29,73 27,75 28,78 25,76 22,78 23,75 21,73 24,73" fill="#FFD700"/>
</svg>